<svg xmlns="http://www.w3.org/2000/svg" xmlns:xlink="http://www.w3.org/1999/xlink" contentStyleType="text/css" data-diagram-type="DESCRIPTION" height="202px" preserveAspectRatio="none" style="width:1598px;height:202px;background:#FFFFFF;" version="1.1" viewBox="0 0 1598 202" width="1598px" zoomAndPan="magnify"><title>PlantUml to image</title><defs/><g><text fill="#000000" font-family="sans-serif" font-size="14" font-weight="bold" lengthAdjust="spacing" textLength="146.3301" x="719.0358" y="22.9951">PlantUml to image</text><g id="elem_setup"><ellipse cx="84.8218" cy="61.1016" fill="#FFFECC" rx="39.3018" ry="14.5647" style="stroke:#333333;stroke-width:2;"/><text fill="#000000" font-family="sans-serif" font-size="14" lengthAdjust="spacing" textLength="39.1563" x="63.0826" y="64.6367">setup</text></g><g id="elem_composer:install"><ellipse cx="84.8174" cy="176.4004" fill="#FFFECC" rx="78.8174" ry="18.1635" style="stroke:#333333;stroke-width:2;"/><text fill="#000000" font-family="sans-serif" font-size="14" lengthAdjust="spacing" textLength="115.6367" x="24.8755" y="179.9123">composer:install</text></g><g id="elem_qa"><ellipse cx="724.8155" cy="61.1005" fill="#FFFECC" rx="23.8355" ry="14.5236" style="stroke:#333333;stroke-width:2;"/><text fill="#000000" font-family="sans-serif" font-size="14" lengthAdjust="spacing" textLength="17.4658" x="716.0826" y="63.9472">qa</text></g><g id="elem_php:lint"><ellipse cx="248.8219" cy="176.3979" fill="#FFFECC" rx="49.9919" ry="14.6911" style="stroke:#333333;stroke-width:2;"/><text fill="#000000" font-family="sans-serif" font-size="14" lengthAdjust="spacing" textLength="53.5049" x="219.0695" y="180.1455">php:lint</text></g><g id="elem_composer:normalize"><ellipse cx="423.8157" cy="176.398" fill="#FFFECC" rx="90.5057" ry="20.5011" style="stroke:#333333;stroke-width:2;"/><text fill="#000000" font-family="sans-serif" font-size="14" lengthAdjust="spacing" textLength="142.8848" x="352.3733" y="179.2447">composer:normalize</text></g><g id="elem_composer:validate"><ellipse cx="633.815" cy="176.3939" fill="#FFFECC" rx="84.835" ry="19.367" style="stroke:#333333;stroke-width:2;"/><text fill="#000000" font-family="sans-serif" font-size="14" lengthAdjust="spacing" textLength="129.9443" x="568.8429" y="179.2406">composer:validate</text></g><g id="elem_psalm:run"><ellipse cx="815.8198" cy="176.3968" fill="#FFFECC" rx="62.2498" ry="14.85" style="stroke:#333333;stroke-width:2;"/><text fill="#000000" font-family="sans-serif" font-size="14" lengthAdjust="spacing" textLength="70.5059" x="777.5669" y="180.1444">psalm:run</text></g><g id="elem_cs:check"><ellipse cx="968.82" cy="176.3948" fill="#FFFECC" rx="55.36" ry="14.7379" style="stroke:#333333;stroke-width:2;"/><text fill="#000000" font-family="sans-serif" font-size="14" lengthAdjust="spacing" textLength="60.6963" x="935.4719" y="180.1424">cs:check</text></g><g id="elem_phpunit:run"><ellipse cx="1124.8196" cy="176.3988" fill="#FFFECC" rx="66.1096" ry="15.6219" style="stroke:#333333;stroke-width:2;"/><text fill="#000000" font-family="sans-serif" font-size="14" lengthAdjust="spacing" textLength="81.9902" x="1080.8245" y="180.1464">phpunit:run</text></g><g id="elem_help"><ellipse cx="1259.8245" cy="61.1006" fill="#FFFECC" rx="32.8845" ry="14.5237" style="stroke:#333333;stroke-width:2;"/><text fill="#000000" font-family="sans-serif" font-size="14" lengthAdjust="spacing" textLength="30.2627" x="1244.6121" y="63.9785">help</text></g><g id="elem_map"><ellipse cx="1259.8209" cy="176.4013" fill="#FFFECC" rx="33.4809" ry="14.5244" style="stroke:#333333;stroke-width:2;"/><text fill="#000000" font-family="sans-serif" font-size="14" lengthAdjust="spacing" textLength="31.1035" x="1244.0139" y="179.3445">map</text></g><g id="elem_phpunit:testdox"><ellipse cx="1404.8204" cy="61.097" fill="#FFFECC" rx="77.0004" ry="17.8001" style="stroke:#333333;stroke-width:2;"/><text fill="#000000" font-family="sans-serif" font-size="14" lengthAdjust="spacing" textLength="111.1113" x="1346.3948" y="64.8109">phpunit:testdox</text></g><g id="elem_cs:fix"><ellipse cx="1554.8158" cy="61.0942" fill="#FFFECC" rx="37.5858" ry="14.5473" style="stroke:#333333;stroke-width:2;"/><text fill="#000000" font-family="sans-serif" font-size="14" lengthAdjust="spacing" textLength="36.8115" x="1534.8453" y="64.4633">cs:fix</text></g><!--link setup to composer:install--><g id="link_setup_composer:install"><path d="M84.82,75.9869 C84.82,96.6669 84.82,129.5269 84.82,152.0469 " fill="#FFFFFF" fill-opacity="0.00000" id="setup-to-composer:install" style="stroke:#1A85FF;stroke-width:2;"/><polygon fill="#1A85FF" points="84.82,158.0469,88.82,149.0469,84.82,153.0469,80.82,149.0469,84.82,158.0469" style="stroke:#1A85FF;stroke-width:2;"/><text fill="#000000" font-family="sans-serif" font-size="13" lengthAdjust="spacing" textLength="61.6421" x="85.82" y="121.9638">depend:1</text></g><!--link qa to php:lint--><g id="link_qa_php:lint"><path d="M701.96,65.9669 C659.27,73.3469 564.62,90.3169 485.82,108.8969 C409.52,126.8869 391.23,134.4969 315.82,155.8969 C305.21,158.9069 299.4401,160.5573 288.9801,163.6073 " fill="#FFFFFF" fill-opacity="0.00000" id="qa-to-php:lint" style="stroke:#1A85FF;stroke-width:2;"/><polygon fill="#1A85FF" points="283.22,165.2869,292.9799,166.6076,288.0201,163.8872,290.7405,158.9274,283.22,165.2869" style="stroke:#1A85FF;stroke-width:2;"/><text fill="#000000" font-family="sans-serif" font-size="13" lengthAdjust="spacing" textLength="61.6421" x="486.82" y="121.9638">depend:1</text></g><!--link qa to composer:normalize--><g id="link_qa_composer:normalize"><path d="M705.07,69.5269 C657.59,87.3969 541.6754,131.0332 474.9654,156.1432 " fill="#FFFFFF" fill-opacity="0.00000" id="qa-to-composer:normalize" style="stroke:#1A85FF;stroke-width:2;"/><polygon fill="#1A85FF" points="469.35,158.2569,479.1822,158.83,474.0295,156.4955,476.364,151.3428,469.35,158.2569" style="stroke:#1A85FF;stroke-width:2;"/><text fill="#000000" font-family="sans-serif" font-size="13" lengthAdjust="spacing" textLength="61.6421" x="593.82" y="121.9638">depend:2</text></g><!--link qa to composer:validate--><g id="link_qa_composer:validate"><path d="M714.73,74.6569 C698.63,94.7069 670.7865,129.3584 652.2065,152.4984 " fill="#FFFFFF" fill-opacity="0.00000" id="qa-to-composer:validate" style="stroke:#1A85FF;stroke-width:2;"/><polygon fill="#1A85FF" points="648.45,157.1769,657.2038,152.6635,651.5805,153.2781,650.9658,147.6548,648.45,157.1769" style="stroke:#1A85FF;stroke-width:2;"/><text fill="#000000" font-family="sans-serif" font-size="13" lengthAdjust="spacing" textLength="61.6421" x="685.82" y="121.9638">depend:3</text></g><!--link qa to psalm:run--><g id="link_qa_psalm:run"><path d="M734.9,74.6569 C752.03,95.9669 782.9034,134.4084 800.7934,156.6884 " fill="#FFFFFF" fill-opacity="0.00000" id="qa-to-psalm:run" style="stroke:#1A85FF;stroke-width:2;"/><polygon fill="#1A85FF" points="804.55,161.3669,802.034,151.8448,801.4195,157.4682,795.7961,156.8536,804.55,161.3669" style="stroke:#1A85FF;stroke-width:2;"/><text fill="#000000" font-family="sans-serif" font-size="13" lengthAdjust="spacing" textLength="61.6421" x="775.82" y="121.9638">depend:4</text></g><!--link qa to cs:check--><g id="link_qa_cs:check"><path d="M745.27,69.1069 C769.59,77.6569 811.26,92.9469 845.82,108.8969 C882.19,125.6769 917.5797,145.4467 941.8397,159.5167 " fill="#FFFFFF" fill-opacity="0.00000" id="qa-to-cs:check" style="stroke:#1A85FF;stroke-width:2;"/><polygon fill="#1A85FF" points="947.03,162.5269,941.2514,154.5514,942.7048,160.0184,937.2378,161.4718,947.03,162.5269" style="stroke:#1A85FF;stroke-width:2;"/><text fill="#000000" font-family="sans-serif" font-size="13" lengthAdjust="spacing" textLength="61.6421" x="880.82" y="121.9638">depend:5</text></g><!--link qa to phpunit:run--><g id="link_qa_phpunit:run"><path d="M747.89,65.6069 C789.12,72.1769 877.94,87.5769 950.82,108.8969 C1002.34,123.9669 1054.6917,145.1013 1089.0117,159.7513 " fill="#FFFFFF" fill-opacity="0.00000" id="qa-to-phpunit:run" style="stroke:#1A85FF;stroke-width:2;"/><polygon fill="#1A85FF" points="1094.53,162.1069,1087.823,154.8947,1089.9314,160.1439,1084.6822,162.2524,1094.53,162.1069" style="stroke:#1A85FF;stroke-width:2;"/><text fill="#000000" font-family="sans-serif" font-size="13" lengthAdjust="spacing" textLength="61.6421" x="999.82" y="121.9638">depend:6</text></g><!--link help to map--><g id="link_help_map"><path d="M1259.82,75.9869 C1259.82,97.7369 1259.82,133.5769 1259.82,155.3869 " fill="#FFFFFF" fill-opacity="0.00000" id="help-to-map" style="stroke:#D41159;stroke-width:2;"/><polygon fill="#D41159" points="1259.82,161.3869,1263.82,152.3869,1259.82,156.3869,1255.82,152.3869,1259.82,161.3869" style="stroke:#D41159;stroke-width:2;"/><text fill="#000000" font-family="sans-serif" font-size="13" lengthAdjust="spacing" textLength="34.9883" x="1260.82" y="121.9638">call:1</text></g><!--SRC=[XP4zJyCm48Rt-nMMkgH3X_G3GGQaDf0P2JeX1XExZHNRP-mBhVZrvAEY8QJ5a-rxtjTthqcHbl2akQMjqOoGASFt4gGLZDeQ4Bhc_Xs9q32XlCn9eGK8fRAEUsxOSy457fJTintNGVOgQ-_naA6b53Lwjj4yBuVbbqBbfPKXi7clj0qovK5kQi7UOsL5vp39ikmnJKT0z4Bw4xHeroNeweF3PW6Y8AboKpPxdSJhsrMMlStkMPIZSHYaJvGDnBMUieG9wUhWaXYY3pxaNU4IhIpzn_tuMlI6Q_KbUuhvLSLdZGjEVS5Yj9N0jKbyPNlWSjGv97aXyxB7hIxCLbb50yiRY0gfk-0Ubd6ykcjXmrq3vNLcJG9TkAqhd4CwIQ6beTSn_7hiV28PIE2nlldpCJ2I48pb3Ct0EtNiDjtatm00]--></g></svg>