<svg xmlns="http://www.w3.org/2000/svg" xmlns:xlink="http://www.w3.org/1999/xlink" contentStyleType="text/css" data-diagram-type="DESCRIPTION" height="202px" preserveAspectRatio="none" style="width:1341px;height:202px;background:#FFFFFF;" version="1.1" viewBox="0 0 1341 202" width="1341px" zoomAndPan="magnify"><title>PlantUml to image</title><defs/><g><text fill="#000000" font-family="sans-serif" font-size="14" font-weight="bold" lengthAdjust="spacing" textLength="146.3301" x="590.7454" y="22.9951">PlantUml to image</text><g id="elem_setup"><ellipse cx="84.8218" cy="61.1016" fill="#FFFECC" rx="39.3018" ry="14.5647" style="stroke:#333333;stroke-width:2;"/><text fill="#000000" font-family="sans-serif" font-size="14" lengthAdjust="spacing" textLength="39.1563" x="63.0826" y="64.6367">setup</text></g><g id="elem_composer:install"><ellipse cx="84.8174" cy="176.4004" fill="#FFFECC" rx="78.8174" ry="18.1635" style="stroke:#333333;stroke-width:2;"/><text fill="#000000" font-family="sans-serif" font-size="14" lengthAdjust="spacing" textLength="115.6367" x="24.8755" y="179.9123">composer:install</text></g><g id="elem_qa"><ellipse cx="633.8155" cy="61.1005" fill="#FFFECC" rx="23.8355" ry="14.5236" style="stroke:#333333;stroke-width:2;"/><text fill="#000000" font-family="sans-serif" font-size="14" lengthAdjust="spacing" textLength="17.4658" x="625.0826" y="63.9472">qa</text></g><g id="elem_php:lint"><ellipse cx="248.8219" cy="176.3979" fill="#FFFECC" rx="49.9919" ry="14.6911" style="stroke:#333333;stroke-width:2;"/><text fill="#000000" font-family="sans-serif" font-size="14" lengthAdjust="spacing" textLength="53.5049" x="219.0695" y="180.1455">php:lint</text></g><g id="elem_composer:normalize"><ellipse cx="423.8157" cy="176.398" fill="#FFFECC" rx="90.5057" ry="20.5011" style="stroke:#333333;stroke-width:2;"/><text fill="#000000" font-family="sans-serif" font-size="14" lengthAdjust="spacing" textLength="142.8848" x="352.3733" y="179.2447">composer:normalize</text></g><g id="elem_composer:validate"><ellipse cx="633.815" cy="176.3939" fill="#FFFECC" rx="84.835" ry="19.367" style="stroke:#333333;stroke-width:2;"/><text fill="#000000" font-family="sans-serif" font-size="14" lengthAdjust="spacing" textLength="129.9443" x="568.8429" y="179.2406">composer:validate</text></g><g id="elem_psalm:run"><ellipse cx="815.8198" cy="176.3968" fill="#FFFECC" rx="62.2498" ry="14.85" style="stroke:#333333;stroke-width:2;"/><text fill="#000000" font-family="sans-serif" font-size="14" lengthAdjust="spacing" textLength="70.5059" x="777.5669" y="180.1444">psalm:run</text></g><g id="elem_phpunit:run"><ellipse cx="978.8196" cy="176.3988" fill="#FFFECC" rx="66.1096" ry="15.6219" style="stroke:#333333;stroke-width:2;"/><text fill="#000000" font-family="sans-serif" font-size="14" lengthAdjust="spacing" textLength="81.9902" x="934.8245" y="180.1464">phpunit:run</text></g><g id="elem_help"><ellipse cx="1113.8245" cy="61.1006" fill="#FFFECC" rx="32.8845" ry="14.5237" style="stroke:#333333;stroke-width:2;"/><text fill="#000000" font-family="sans-serif" font-size="14" lengthAdjust="spacing" textLength="30.2627" x="1098.6121" y="63.9785">help</text></g><g id="elem_map"><ellipse cx="1113.8209" cy="176.4013" fill="#FFFECC" rx="33.4809" ry="14.5244" style="stroke:#333333;stroke-width:2;"/><text fill="#000000" font-family="sans-serif" font-size="14" lengthAdjust="spacing" textLength="31.1035" x="1098.0139" y="179.3445">map</text></g><g id="elem_phpunit:testdox"><ellipse cx="1258.8204" cy="61.097" fill="#FFFECC" rx="77.0004" ry="17.8001" style="stroke:#333333;stroke-width:2;"/><text fill="#000000" font-family="sans-serif" font-size="14" lengthAdjust="spacing" textLength="111.1113" x="1200.3948" y="64.8109">phpunit:testdox</text></g><!--link setup to composer:install--><g id="link_setup_composer:install"><path d="M84.82,75.9869 C84.82,96.6669 84.82,129.5269 84.82,152.0469 " fill="#FFFFFF" fill-opacity="0.00000" id="setup-to-composer:install" style="stroke:#1A85FF;stroke-width:2;"/><polygon fill="#1A85FF" points="84.82,158.0469,88.82,149.0469,84.82,153.0469,80.82,149.0469,84.82,158.0469" style="stroke:#1A85FF;stroke-width:2;"/><text fill="#000000" font-family="sans-serif" font-size="13" lengthAdjust="spacing" textLength="61.6421" x="85.82" y="121.9638">depend:1</text></g><!--link qa to php:lint--><g id="link_qa_php:lint"><path d="M611.66,66.9969 C576.35,74.9369 505.21,91.5069 445.82,108.8969 C386.06,126.3869 323.0338,148.4605 284.5938,162.3305 " fill="#FFFFFF" fill-opacity="0.00000" id="qa-to-php:lint" style="stroke:#1A85FF;stroke-width:2;"/><polygon fill="#1A85FF" points="278.95,164.3669,288.7734,165.0748,283.6532,162.6699,286.0582,157.5497,278.95,164.3669" style="stroke:#1A85FF;stroke-width:2;"/><text fill="#000000" font-family="sans-serif" font-size="13" lengthAdjust="spacing" textLength="61.6421" x="446.82" y="121.9638">depend:1</text></g><!--link qa to composer:normalize--><g id="link_qa_composer:normalize"><path d="M616.63,71.3669 C581.96,90.0769 508.3407,129.7983 462.9407,154.2883 " fill="#FFFFFF" fill-opacity="0.00000" id="qa-to-composer:normalize" style="stroke:#1A85FF;stroke-width:2;"/><polygon fill="#1A85FF" points="457.66,157.1369,467.4801,156.3845,462.0606,154.7631,463.682,149.3436,457.66,157.1369" style="stroke:#1A85FF;stroke-width:2;"/><text fill="#000000" font-family="sans-serif" font-size="13" lengthAdjust="spacing" textLength="61.6421" x="542.82" y="121.9638">depend:2</text></g><!--link qa to composer:validate--><g id="link_qa_composer:validate"><path d="M633.82,75.9869 C633.82,96.3169 633.82,128.1969 633.82,150.8769 " fill="#FFFFFF" fill-opacity="0.00000" id="qa-to-composer:validate" style="stroke:#1A85FF;stroke-width:2;"/><polygon fill="#1A85FF" points="633.82,156.8769,637.82,147.8769,633.82,151.8769,629.82,147.8769,633.82,156.8769" style="stroke:#1A85FF;stroke-width:2;"/><text fill="#000000" font-family="sans-serif" font-size="13" lengthAdjust="spacing" textLength="61.6421" x="634.82" y="121.9638">depend:3</text></g><!--link qa to psalm:run--><g id="link_qa_psalm:run"><path d="M649.97,72.1469 C682.85,92.6169 752.4866,135.9656 789.3466,158.9156 " fill="#FFFFFF" fill-opacity="0.00000" id="qa-to-psalm:run" style="stroke:#1A85FF;stroke-width:2;"/><polygon fill="#1A85FF" points="794.44,162.0869,788.9141,153.9343,790.1955,159.4441,784.6857,160.7255,794.44,162.0869" style="stroke:#1A85FF;stroke-width:2;"/><text fill="#000000" font-family="sans-serif" font-size="13" lengthAdjust="spacing" textLength="61.6421" x="735.82" y="121.9638">depend:4</text></g><!--link qa to phpunit:run--><g id="link_qa_phpunit:run"><path d="M655.75,67.3069 C688.64,75.2869 752.58,91.4669 805.82,108.8969 C856.12,125.3569 907.6627,145.8405 942.0427,160.0105 " fill="#FFFFFF" fill-opacity="0.00000" id="qa-to-phpunit:run" style="stroke:#1A85FF;stroke-width:2;"/><polygon fill="#1A85FF" points="947.59,162.2969,940.7933,155.1691,942.9673,160.3916,937.7448,162.5655,947.59,162.2969" style="stroke:#1A85FF;stroke-width:2;"/><text fill="#000000" font-family="sans-serif" font-size="13" lengthAdjust="spacing" textLength="61.6421" x="854.82" y="121.9638">depend:5</text></g><!--link help to map--><g id="link_help_map"><path d="M1113.82,75.9869 C1113.82,97.7369 1113.82,133.5769 1113.82,155.3869 " fill="#FFFFFF" fill-opacity="0.00000" id="help-to-map" style="stroke:#D41159;stroke-width:2;"/><polygon fill="#D41159" points="1113.82,161.3869,1117.82,152.3869,1113.82,156.3869,1109.82,152.3869,1113.82,161.3869" style="stroke:#D41159;stroke-width:2;"/><text fill="#000000" font-family="sans-serif" font-size="13" lengthAdjust="spacing" textLength="34.9883" x="1114.82" y="121.9638">call:1</text></g><!--SRC=[XP0zJyCm48Rt-nMMkgH3X_H3WWn8RI0p4dH232O-6gkspzWNYlZrf6b5GqXRRxxtUU_ZPSq6uT58nsjh19FGLcuGq2d1hGPCVbz_8sQoGkc09Mjo076hdPT1Ml5KIKKxxJRYNPg87MKP0kqASfoJeI1MHfRRllnSwNBhC4OnxKZhYBcCk6eCcq2rKuSEew8e7l9y0AIWC1oXMVlEGHS7zfS5I29oxSTYyZ9AbpUBedYTt8ca9EifOiYqYooD6OjCAFHDS5aAoOViyxxocT6Eht6_VHq5Aut-nevZUj7nsU1ASjSm6rmbIcEpKBiEE3-pS-qqzz0591MQGo3typHTtBQmbNuFbKqM-yiEeRLTuNJyqGej3PrDuC-mquynigAlfl8lS1Yu78Ro-m40]--></g></svg>