<?xml version="1.0" encoding="UTF-8" standalone="no"?><svg xmlns="http://www.w3.org/2000/svg" xmlns:xlink="http://www.w3.org/1999/xlink" contentStyleType="text/css" height="205px" preserveAspectRatio="none" style="width:1372px;height:205px;background:#FFFFFF;" version="1.1" viewBox="0 0 1372 205" width="1372px" zoomAndPan="magnify"><defs/><g><rect fill="none" height="26.2969" id="_title" style="stroke:none;stroke-width:1.0;" width="184" x="587.0339" y="5"/><text fill="#000000" font-family="sans-serif" font-size="14" font-weight="bold" lengthAdjust="spacing" textLength="174" x="592.0339" y="22.9951">jawira/puml-to-image</text><g id="elem_setup"><ellipse cx="86.6638" cy="61.878" fill="#FFFECC" rx="40.6638" ry="14.5812" style="stroke:#333333;stroke-width:2.0;"/><text fill="#000000" font-family="sans-serif" font-size="14" lengthAdjust="spacing" textLength="41" x="63.5122" y="65.5401">setup</text></g><g id="elem_composer:install"><ellipse cx="86.6107" cy="178.319" fill="#FFFECC" rx="80.6107" ry="18.5221" style="stroke:#333333;stroke-width:2.0;"/><text fill="#000000" font-family="sans-serif" font-size="14" lengthAdjust="spacing" textLength="120" x="25.1726" y="181.6316">composer:install</text></g><g id="elem_qa"><ellipse cx="652.5061" cy="61.8205" fill="#FFFECC" rx="23.5061" ry="14.5236" style="stroke:#333333;stroke-width:2.0;"/><text fill="#000000" font-family="sans-serif" font-size="14" lengthAdjust="spacing" textLength="17" x="644.0061" y="64.6672">qa</text></g><g id="elem_php:lint"><ellipse cx="255.3472" cy="178.5183" fill="#FFFECC" rx="53.3472" ry="14.7215" style="stroke:#333333;stroke-width:2.0;"/><text fill="#000000" font-family="sans-serif" font-size="14" lengthAdjust="spacing" textLength="58" x="223.3472" y="182.2659">php:lint</text></g><g id="elem_composer:normalize"><ellipse cx="437.2771" cy="178.2523" fill="#FFFECC" rx="92.7771" ry="20.9554" style="stroke:#333333;stroke-width:2.0;"/><text fill="#000000" font-family="sans-serif" font-size="14" lengthAdjust="spacing" textLength="148" x="363.2771" y="181.099">composer:normalize</text></g><g id="elem_composer:validate"><ellipse cx="652.5998" cy="178.5168" fill="#FFFECC" rx="86.5998" ry="19.72" style="stroke:#333333;stroke-width:2.0;"/><text fill="#000000" font-family="sans-serif" font-size="14" lengthAdjust="spacing" textLength="134" x="585.5998" y="181.3635">composer:validate</text></g><g id="elem_psalm:run"><ellipse cx="836.4096" cy="178.1788" fill="#FFFECC" rx="62.4096" ry="14.8819" style="stroke:#333333;stroke-width:2.0;"/><text fill="#000000" font-family="sans-serif" font-size="14" lengthAdjust="spacing" textLength="71" x="797.9096" y="181.9264">psalm:run</text></g><g id="elem_phpunit:run"><ellipse cx="1001.6678" cy="178.1304" fill="#FFFECC" rx="67.1678" ry="15.8336" style="stroke:#333333;stroke-width:2.0;"/><text fill="#000000" font-family="sans-serif" font-size="14" lengthAdjust="spacing" textLength="85" x="956.1678" y="181.878">phpunit:run</text></g><g id="elem_help"><ellipse cx="1137.6191" cy="61.8229" fill="#FFFECC" rx="34.1191" ry="14.526" style="stroke:#333333;stroke-width:2.0;"/><text fill="#000000" font-family="sans-serif" font-size="14" lengthAdjust="spacing" textLength="32" x="1121.1725" y="64.835">help</text></g><g id="elem_map"><ellipse cx="1137.6191" cy="178.3229" fill="#FFFECC" rx="34.1191" ry="14.526" style="stroke:#333333;stroke-width:2.0;"/><text fill="#000000" font-family="sans-serif" font-size="14" lengthAdjust="spacing" textLength="32" x="1121.1725" y="181.335">map</text></g><g id="elem_phpunit:testdox"><ellipse cx="1286.2839" cy="61.6536" fill="#FFFECC" rx="79.7839" ry="18.3568" style="stroke:#333333;stroke-width:2.0;"/><text fill="#000000" font-family="sans-serif" font-size="14" lengthAdjust="spacing" textLength="118" x="1225.5356" y="65.0582">phpunit:testdox</text></g><!--MD5=[c4e3d432c5d44af54c7eae14d718607a]
link setup to composer:install--><g id="link_setup_composer:install"><path d="M86.5,76.3809 C86.5,95.6569 86.5,131.1914 86.5,154.5337 " fill="none" id="setup-to-composer:install" style="stroke:#1A85FF;stroke-width:2.0;"/><polygon fill="#1A85FF" points="86.5,159.6083,90.5,150.6083,86.5,154.6083,82.5,150.6083,86.5,159.6083" style="stroke:#1A85FF;stroke-width:2.0;"/><text fill="#000000" font-family="sans-serif" font-size="13" lengthAdjust="spacing" textLength="61" x="87.5" y="123.3638">depend:1</text></g><!--MD5=[1748b89255b60d33f2cdf4c4b14f6851]
link qa to php:lint--><g id="link_qa_php:lint"><path d="M630.885,67.6469 C595.347,75.7389 522.432,92.8349 461.5,110.2969 C401.399,127.5206 332.485,150.6285 291.549,164.7153 " fill="none" id="qa-to-php:lint" style="stroke:#1A85FF;stroke-width:2.0;"/><polygon fill="#1A85FF" points="286.698,166.3874,296.5101,167.2376,291.4253,164.7587,293.9042,159.6739,286.698,166.3874" style="stroke:#1A85FF;stroke-width:2.0;"/><text fill="#000000" font-family="sans-serif" font-size="13" lengthAdjust="spacing" textLength="61" x="462.5" y="123.3638">depend:1</text></g><!--MD5=[bd109b3677e86d799c713ba6a41cbebf]
link qa to composer:normalize--><g id="link_qa_composer:normalize"><path d="M635.269,71.9729 C601.097,90.1719 523.976,131.2433 476.772,156.3825 " fill="none" id="qa-to-composer:normalize" style="stroke:#1A85FF;stroke-width:2.0;"/><polygon fill="#1A85FF" points="472.299,158.7643,482.123,158.0649,476.7123,156.4143,478.363,151.0036,472.299,158.7643" style="stroke:#1A85FF;stroke-width:2.0;"/><text fill="#000000" font-family="sans-serif" font-size="13" lengthAdjust="spacing" textLength="61" x="559.5" y="123.3638">depend:2</text></g><!--MD5=[2b3f4df63b0ee79c9fb6dbf297809d2e]
link qa to composer:validate--><g id="link_qa_composer:validate"><path d="M652.5,76.3809 C652.5,95.3259 652.5,129.9779 652.5,153.3226 " fill="none" id="qa-to-composer:validate" style="stroke:#1A85FF;stroke-width:2.0;"/><polygon fill="#1A85FF" points="652.5,158.4136,656.5,149.4136,652.5,153.4136,648.5,149.4136,652.5,158.4136" style="stroke:#1A85FF;stroke-width:2.0;"/><text fill="#000000" font-family="sans-serif" font-size="13" lengthAdjust="spacing" textLength="61" x="653.5" y="123.3638">depend:3</text></g><!--MD5=[5d3e6fc319b2ee7a18ccbd3a812f0e8b]
link qa to psalm:run--><g id="link_qa_psalm:run"><path d="M668.507,72.7579 C700.434,92.6249 772.27,137.3276 810.849,161.335 " fill="none" id="qa-to-psalm:run" style="stroke:#1A85FF;stroke-width:2.0;"/><polygon fill="#1A85FF" points="815.384,164.1571,809.8557,156.0061,811.1387,161.5156,805.6293,162.7986,815.384,164.1571" style="stroke:#1A85FF;stroke-width:2.0;"/><text fill="#000000" font-family="sans-serif" font-size="13" lengthAdjust="spacing" textLength="61" x="757.5" y="123.3638">depend:4</text></g><!--MD5=[f650ecf875d4995533402a90e716630b]
link qa to phpunit:run--><g id="link_qa_phpunit:run"><path d="M673.99,67.8759 C707.209,75.8949 772.897,92.4259 827.5,110.2969 C875.736,126.0839 930.155,147.6651 965.09,162.0214 " fill="none" id="qa-to-phpunit:run" style="stroke:#1A85FF;stroke-width:2.0;"/><polygon fill="#1A85FF" points="970.1,164.0856,963.3018,156.9592,965.4769,162.1812,960.2549,164.3563,970.1,164.0856" style="stroke:#1A85FF;stroke-width:2.0;"/><text fill="#000000" font-family="sans-serif" font-size="13" lengthAdjust="spacing" textLength="61" x="877.5" y="123.3638">depend:5</text></g><!--MD5=[14249115d5831a03908de0f88c57b1bf]
link help to map--><g id="link_help_map"><path d="M1137.5,76.3809 C1137.5,96.7819 1137.5,135.3967 1137.5,158.4923 " fill="none" id="help-to-map" style="stroke:#D41159;stroke-width:2.0;"/><polygon fill="#D41159" points="1137.5,163.7303,1141.5,154.7303,1137.5,158.7303,1133.5,154.7303,1137.5,163.7303" style="stroke:#D41159;stroke-width:2.0;"/><text fill="#000000" font-family="sans-serif" font-size="13" lengthAdjust="spacing" textLength="34" x="1138.5" y="123.3638">call:1</text></g><!--MD5=[148d2466b196e10e8211cbcd8da12360]
@startuml
title
jawira/puml-to-image
end title

top to bottom direction

skinparam Shadowing false
skinparam ArrowFontColor Black
skinparam ArrowThickness 2
skinparam UseCaseBackgroundColor #FFFECC
skinparam UseCaseBorderColor #333333
skinparam UseCaseBorderThickness 2
skinparam UseCaseFontColor Black


(setup) -[#1A85FF]-> (composer:install) : depend:1
(qa) -[#1A85FF]-> (php:lint) : depend:1
(qa) -[#1A85FF]-> (composer:normalize) : depend:2
(qa) -[#1A85FF]-> (composer:validate) : depend:3
(qa) -[#1A85FF]-> (psalm:run) : depend:4
(qa) -[#1A85FF]-> (phpunit:run) : depend:5
(help) -[#D41159]-> (map) : call:1
(setup)
(qa)
(php:lint)
(help)
(map)
(psalm:run)
(phpunit:run)
(phpunit:testdox)
(composer:install)
(composer:validate)
(composer:normalize)
@enduml

PlantUML version 1.2022.10beta1(Unknown compile time)
(GPL source distribution)
Java Runtime: Java(TM) SE Runtime Environment
JVM: Java HotSpot(TM) 64-Bit Server VM
Default Encoding: UTF-8
Language: en
Country: US
--></g></svg>